<?xml version="1.0" encoding="UTF-8"?>
<!DOCTYPE svg PUBLIC "-//W3C//DTD SVG 1.1//EN" "http://www.w3.org/Graphics/SVG/1.1/DTD/svg11.dtd">
<!-- Creator: CorelDRAW -->
<svg xmlns="http://www.w3.org/2000/svg" xml:space="preserve" width="156.486mm" height="50.7312mm" style="shape-rendering:geometricPrecision; text-rendering:geometricPrecision; image-rendering:optimizeQuality; fill-rule:evenodd; clip-rule:evenodd"
viewBox="0 0 156.398 50.7028"
 xmlns:xlink="http://www.w3.org/1999/xlink">
 <defs>
  <style type="text/css">
   <![CDATA[
    .fil2 {fill:#1C1B17}
    .fil3 {fill:#FEFEFE}
    .fil0 {fill:#2B2A29;fill-rule:nonzero}
    .fil1 {fill:url(#id0)}
   ]]>
  </style>
  <linearGradient id="id0" gradientUnits="userSpaceOnUse" x1="21.6579" y1="50.7027" x2="21.6579" y2="9.99439e-005">
   <stop offset="0" style="stop-color:#008899"/>
   <stop offset="0.721569" style="stop-color:#58A95C"/>
   <stop offset="1" style="stop-color:#B0CB1F"/>
  </linearGradient>
 </defs>
 <g id="Layer_x0020_1">
  <metadata id="CorelCorpID_0Corel-Layer"/>
  <g id="_203614376">
   <g>
    <path id="_389662648" class="fil0" d="M47.1246 18.3214c0,-1.85216 0.224174,-3.49604 0.672523,-4.92654 0.448348,-1.4251 1.0729,-2.63662 1.87885,-3.62407 0.800551,-0.992743 1.75062,-1.75072 2.8448,-2.28442 1.09419,-0.5338 2.28982,-0.83803 3.58139,-0.923382l0 3.12775c-0.709802,0.0853521 -1.37703,0.304229 -2.00148,0.656432 -0.62445,0.357699 -1.16894,0.875409 -1.62799,1.56392 -0.458942,0.688514 -0.821939,1.56382 -1.09409,2.62603 -0.272247,1.0675 -0.416366,2.32709 -0.437754,3.78428 0.021388,1.48377 0.165507,2.74876 0.437754,3.80017 0.272147,1.05151 0.640441,1.93751 1.11018,2.64212 0.469636,0.709802 1.01413,1.2489 1.64388,1.6119 0.62455,0.362896 1.28098,0.576377 1.96949,0.640441l0 3.09576c-1.27029,-0.0800551 -2.46052,-0.389681 -3.5654,-0.923382 -1.10478,-0.528404 -2.06024,-1.29168 -2.86079,-2.27912 -0.805948,-0.992743 -1.4305,-2.20436 -1.87885,-3.64545 -0.448348,-1.43579 -0.672523,-3.08507 -0.672523,-4.94243zm10.2266 -11.7584c1.27029,0.0640641 2.45522,0.368293 3.54941,0.907391 1.09419,0.544395 2.04425,1.30767 2.8448,2.30041 0.805948,0.987446 1.43579,2.19897 1.89484,3.62407 0.459042,1.4305 0.688514,3.07438 0.688514,4.92654 0,1.85736 -0.229471,3.50663 -0.688514,4.94243 -0.459042,1.44109 -1.08889,2.65271 -1.89484,3.64545 -0.800551,0.987446 -1.74532,1.75072 -2.82881,2.27912 -1.08349,0.533701 -2.27372,0.843327 -3.5654,0.923382l0 -3.09576c0.709902,-0.0800551 1.37703,-0.304229 2.00158,-0.672523 0.62445,-0.362896 1.16884,-0.896697 1.62789,-1.5959 0.459042,-0.693811 0.821939,-1.57452 1.09419,-2.62603 0.272247,-1.05141 0.416266,-2.3164 0.437654,-3.80017 -0.021388,-1.47847 -0.165407,-2.74346 -0.437654,-3.80027 -0.272247,-1.05151 -0.640541,-1.92682 -1.11018,-2.62603 -0.469736,-0.699208 -1.01413,-1.22761 -1.64398,-1.5959 -0.62445,-0.362996 -1.28098,-0.576477 -1.96949,-0.640541l0 -3.09566z"/>
    <path id="_3896626481" class="fil0" d="M75.1781 24.5768c0,0.709902 0.0960461,1.26499 0.282841,1.67596 0.186895,0.405672 0.448348,0.704605 0.779263,0.907391 0.336311,0.197489 0.715299,0.325617 1.14226,0.389681 0.42696,0.0639641 0.8914,0.0907491 1.39312,0.0907491l0 2.3164c-0.272247,0.0426761 -0.555188,0.0747581 -0.843327,0.0960461 -0.229571,0.015991 -0.501718,0.032082 -0.816642,0.042776 -0.309626,0.0105941 -0.62455,0.015991 -0.934076,0.015991 -0.314923,0 -0.629847,-0.010694 -0.939373,-0.032082 -0.314923,-0.015991 -0.597765,-0.0479731 -0.843327,-0.0907491 -0.709902,-0.144019 -1.26499,-0.458942 -1.65997,-0.939373 -0.394978,-0.48033 -0.699208,-1.01413 -0.907291,-1.6119 -0.208183,-0.592468 -0.336311,-1.16884 -0.389681,-1.73463 -0.0533701,-0.560486 -0.0800551,-0.99814 -0.0800551,-1.31306l0 -0.37359 0 -18.3608 3.81626 0 0 18.9212z"/>
    <path id="_38966264812" class="fil0" d="M90.9716 12.162c1.12627,0.10674 2.1404,0.405672 3.04769,0.907391 0.907391,0.501718 1.68665,1.14756 2.33249,1.93741 0.645838,0.795354 1.14226,1.70264 1.48377,2.72217 0.347005,1.01943 0.517809,2.08693 0.517809,3.19171 0,0.496421 -0.032082,0.99814 -0.0961461,1.49986l-10.7229 0 0 -2.75415 7.22155 0c0,-0.538998 -0.0907491,-1.0621 -0.26685,-1.56382 -0.176101,-0.496421 -0.437654,-0.960761 -0.779263,-1.38772 -0.346905,-0.432357 -0.747281,-0.789957 -1.20632,-1.08349 -0.458942,-0.288238 -0.966058,-0.464339 -1.53184,-0.528404l0 -2.94095zm-0.122731 14.8541c0.229571,0 0.512412,-0.026685 0.859318,-0.0746581 0.341608,-0.0533701 0.709902,-0.149516 1.09419,-0.282941 0.384284,-0.138722 0.768569,-0.309526 1.15825,-0.51771 0.384284,-0.208183 0.720496,-0.459042 1.01413,-0.747281l1.37703 2.09233c-0.688514,0.853921 -1.48916,1.49976 -2.40715,1.93751 -0.918085,0.437654 -2.08693,0.656432 -3.50673,0.656432 -1.14226,0 -2.22035,-0.234768 -3.21849,-0.699208 -1.00344,-0.469636 -1.85746,-1.11018 -2.56726,-1.92682 -0.704605,-0.811245 -1.27039,-1.76131 -1.68665,-2.8448 -0.416366,-1.08349 -0.62445,-2.25244 -0.62445,-3.50134 0,-1.19033 0.192092,-2.3165 0.576377,-3.3786 0.389681,-1.0622 0.912688,-1.99628 1.57991,-2.79683 0.667226,-0.805948 1.44649,-1.45718 2.33249,-1.9589 0.886003,-0.496322 1.83607,-0.779263 2.86079,-0.843227l0 3.00491c-0.773866,0.144119 -1.40901,0.459042 -1.91073,0.934076 -0.496421,0.48033 -0.8914,1.03012 -1.16894,1.64388 -0.282841,0.613856 -0.48033,1.2437 -0.597765,1.89484 -0.112137,0.645838 -0.170804,1.19563 -0.170804,1.65457 0,0.811345 0.101443,1.56922 0.298932,2.26843 0.197389,0.699208 0.507016,1.30237 0.923282,1.81478 0.416366,0.507016 0.928779,0.917985 1.54793,1.21692 0.613756,0.304229 1.36104,0.453645 2.23635,0.453645z"/>
    <path id="_389662648123" class="fil0" d="M123.717 12.3168l4.0991 0 -4.97451 17.7629 -4.87836 0 -1.87345 -7.28561 0 -10.4773 1.37173 0 2.97293 14.6993 3.28256 -14.6993zm-13.6319 14.6993l3.28256 -14.6993 1.43579 0 0 9.53795 -2.25244 8.22499 -4.91044 0 -4.53146 -17.7629 4.06712 0 2.90887 14.6993z"/>
    <path id="_3896626481234" class="fil0" d="M136.479 29.957l-3.81626 0 0 -17.6402 3.81626 0 0 17.6402zm0.341608 -23.2658c0,0.62445 -0.218777,1.14746 -0.656432,1.57981 -0.437754,0.42706 -0.966158,0.640541 -1.5959,0.640541 -0.62455,0 -1.14756,-0.218877 -1.57462,-0.656532 -0.432257,-0.437654 -0.645738,-0.960761 -0.645738,-1.56382 0,-0.629847 0.218777,-1.15825 0.661829,-1.5959 0.437654,-0.437754 0.955364,-0.656532 1.55853,-0.656532 0.629747,0 1.15815,0.218777 1.5959,0.656532 0.437654,0.437654 0.656432,0.966058 0.656432,1.5959z"/>
    <path id="_38966264812345" class="fil0" d="M145.173 12.3168l0.405572 1.7827 0 15.8575 -3.78418 0 0 -17.6402 3.3786 0zm9.75683 1.94281c0.352302,0.352302 0.629847,0.763272 0.827336,1.23291 0.197389,0.469736 0.346905,0.960761 0.437654,1.46778 0.0960461,0.512412 0.149416,1.03012 0.170804,1.54793 0.0212881,0.523007 0.0319821,1.03542 0.0319821,1.53714l0 9.28719 0 0.62445 -3.81626 0 0 -9.60201c0,-0.709902 -0.026685,-1.38782 -0.0907491,-2.03356 -0.0640641,-0.645838 -0.208183,-1.21702 -0.437654,-1.71874 -0.229471,-0.501718 -0.544395,-0.8913 -0.939373,-1.17424 -0.394978,-0.277544 -0.950067,-0.421663 -1.65997,-0.421663 -0.288238,0 -0.67782,0.048073 -1.16894,0.144119 -0.491024,0.0907491 -0.966058,0.240265 -1.4251,0.453745l0 -2.41255c0.565783,-0.288238 1.17424,-0.539098 1.83077,-0.747281 0.656532,-0.208083 1.29697,-0.314823 1.92152,-0.314823 0.939373,0 1.72933,0.192092 2.38046,0.581774 0.645838,0.384284 1.29168,0.896697 1.93751,1.54783z"/>
    <polygon id="_389662792" class="fil0" points="55.0614,35.4478 55.0614,36.6421 51.8541,36.6421 51.8541,46.192 50.0899,46.192 50.0899,36.6421 46.8826,36.6421 46.8826,35.4478 "/>
    <path id="_3896627921" class="fil0" d="M60.8789 37.8962c0.525005,0.0497721 0.99774,0.189094 1.4207,0.422963 0.423063,0.233869 0.786359,0.535 1.08739,0.903193 0.301131,0.370792 0.532501,0.793755 0.691712,1.26899 0.161809,0.475333 0.241365,0.972954 0.241365,1.48807 0,0.23137 -0.0148916,0.465239 -0.0447749,0.699108l-4.9989 0 0 -1.28388 3.36661 0c0,-0.251359 -0.0422763,-0.495222 -0.12443,-0.729091 -0.082054,-0.23137 -0.203986,-0.447849 -0.363296,-0.646937 -0.161709,-0.201487 -0.348305,-0.368193 -0.562285,-0.505117 -0.21398,-0.134325 -0.450347,-0.216479 -0.714099,-0.246262l0 -1.37103zm-0.0572679 6.92471c0.10704,0 0.238866,-0.012393 0.400575,-0.0347805 0.159311,-0.024886 0.331014,-0.0697609 0.510114,-0.131926 0.179199,-0.0646637 0.358299,-0.144319 0.539997,-0.241365 0.1791,-0.0970456 0.335912,-0.21398 0.472735,-0.348305l0.64194 0.975353c-0.32092,0.398077 -0.69421,0.699208 -1.12217,0.903193 -0.42796,0.204085 -0.972954,0.306128 -1.63478,0.306128 -0.532501,0 -1.03512,-0.109539 -1.50036,-0.326017 -0.467838,-0.218977 -0.865914,-0.51751 -1.19693,-0.898196 -0.328416,-0.378288 -0.592168,-0.821139 -0.786259,-1.32626 -0.194091,-0.505117 -0.291137,-1.05001 -0.291137,-1.63228 0,-0.554889 0.0896497,-1.07989 0.268749,-1.57512 0.181598,-0.495122 0.425461,-0.930578 0.736487,-1.30377 0.311025,-0.375789 0.674322,-0.679319 1.08739,-0.913188 0.413068,-0.23137 0.85592,-0.363296 1.33375,-0.393179l0 1.40091c-0.360798,0.0671623 -0.656931,0.21398 -0.8908,0.435456 -0.23147,0.223874 -0.415567,0.480231 -0.544994,0.76637 -0.131826,0.286139 -0.223874,0.579775 -0.278644,0.883304 -0.0522707,0.301031 -0.0796553,0.557387 -0.0796553,0.771367 0,0.378188 0.0472735,0.73149 0.139322,1.05751 0.0921483,0.325917 0.236467,0.607159 0.430558,0.846025 0.193991,0.236367 0.432857,0.42796 0.721495,0.567282 0.286239,0.14182 0.634544,0.211481 1.04262,0.211481z"/>
    <path id="_38966279212" class="fil0" d="M72.2079 40.0983c-0.144319,-0.176701 -0.345906,-0.33841 -0.604661,-0.490225 -0.258755,-0.149216 -0.599664,-0.238866 -1.02762,-0.268749l0 -1.39832c0.535,0.0273846 0.992843,0.14182 1.37853,0.340909 0.383185,0.198988 0.73149,0.490125 1.04252,0.868313l-0.788757 0.948068zm-1.63228 4.70776c0.350803,-0.037379 0.649436,-0.121932 0.895797,-0.253858 0.24876,-0.131826 0.485128,-0.283641 0.706604,-0.460342l0.656931 0.948068c-0.301131,0.378188 -0.627048,0.669324 -0.975353,0.868413 -0.350903,0.199088 -0.778863,0.313524 -1.28398,0.340909l0 -1.44319zm-4.06832 -2.72467c0,-0.554889 0.0796553,-1.0749 0.241365,-1.56012 0.159311,-0.487626 0.395678,-0.913188 0.706703,-1.28388 0.311025,-0.368293 0.67682,-0.666826 1.09978,-0.895797 0.423063,-0.228872 0.898296,-0.363296 1.4233,-0.400575l0 1.41331c-0.487726,0.10694 -0.875909,0.405572 -1.16695,0.895797 -0.291137,0.492624 -0.437954,1.08729 -0.437954,1.7865 0,0.360798 0.0372791,0.696709 0.109439,1.01273 0.0721595,0.316023 0.176701,0.597165 0.313524,0.83853 0.136823,0.243863 0.30353,0.447849 0.502618,0.612057 0.199088,0.166806 0.425461,0.268749 0.679319,0.306128l0 1.44319c-0.535,-0.0273846 -1.01773,-0.156812 -1.44319,-0.385684 -0.42796,-0.228972 -0.793755,-0.530003 -1.09479,-0.903293 -0.301131,-0.375689 -0.532501,-0.808646 -0.691812,-1.30627 -0.161709,-0.495222 -0.241365,-1.02023 -0.241365,-1.57262z"/>
    <path id="_389662792123" class="fil0" d="M75.271 34.863l1.76411 0 0 11.3289 -1.76411 0 0 -11.3289zm6.12356 4.01105c0.164208,0.164208 0.293535,0.3558 0.385684,0.574778 0.0920484,0.218977 0.161709,0.447849 0.203986,0.684216 0.0447749,0.238866 0.0696609,0.480231 0.0796553,0.721595 0.00989445,0.243863 0.0148916,0.482729 0.0148916,0.716698l0 4.32947 0 0.291137 -1.7791 0 0 -4.47639c0,-0.330914 -0.012393,-0.646937 -0.0422763,-0.947968 -0.0298832,-0.301031 -0.0970456,-0.567282 -0.203986,-0.80125 -0.10704,-0.233869 -0.253858,-0.415467 -0.437954,-0.547393 -0.184197,-0.129327 -0.442951,-0.19659 -0.773866,-0.19659 -0.134325,0 -0.316023,0.0223874 -0.544894,0.0672623 -0.228972,0.0422763 -0.450447,0.111937 -0.664427,0.211481l0 -1.12467c0.263752,-0.134425 0.547493,-0.251359 0.853521,-0.348405 0.306028,-0.0970456 0.604661,-0.146818 0.895697,-0.146818 0.437954,0 0.806248,0.0896497 1.10978,0.271248 0.301131,0.1791 0.602162,0.418065 0.903293,0.721595z"/>
    <path id="_3896627921234" class="fil0" d="M93.1713 37.1099c-0.0472735,-0.0198888 -0.10694,-0.0546693 -0.174202,-0.101943 -0.0671623,-0.0497721 -0.164208,-0.094547 -0.291037,-0.139422 -0.126929,-0.0447749 -0.286139,-0.0795554 -0.480231,-0.109439 -0.19659,-0.0298832 -0.442951,-0.0348804 -0.743983,-0.0148916l0 -1.47307c0.42796,0.00999439 0.860917,0.0572679 1.30377,0.139322 0.442951,0.0821539 0.798752,0.211481 1.0725,0.385684 -0.0597665,0.126929 -0.126929,0.266251 -0.204085,0.415567 -0.0771567,0.151715 -0.151815,0.291137 -0.218977,0.422963 -0.0671623,0.131926 -0.126829,0.241365 -0.174102,0.328416 -0.0497721,0.0871511 -0.0796553,0.136923 -0.0896497,0.146818zm-5.02868 1.16455c0,-0.42796 0.0721595,-0.811145 0.218977,-1.15205 0.144319,-0.33841 0.340809,-0.637043 0.589669,-0.895797 0.24886,-0.256256 0.539997,-0.460342 0.875909,-0.612057 0.333413,-0.151815 0.686715,-0.251359 1.05501,-0.298632l0 1.53024c-0.311025,0.10704 -0.567382,0.293635 -0.771367,0.562384 -0.204085,0.266251 -0.306028,0.537498 -0.306028,0.808646 0,0.378188 0.101943,0.684316 0.306028,0.918185 0.203986,0.233869 0.460342,0.437954 0.771367,0.612057l0 1.66217c-0.318521,-0.154213 -0.639541,-0.323419 -0.960461,-0.502618 -0.32102,-0.1791 -0.612157,-0.390681 -0.875909,-0.634444 -0.261253,-0.243863 -0.477732,-0.525105 -0.649436,-0.846025 -0.169205,-0.32102 -0.253758,-0.704205 -0.253758,-1.15205zm0.233869 5.94936c0.134325,0.0771567 0.308527,0.154313 0.51751,0.226473 0.209083,0.0721595 0.425561,0.139322 0.646937,0.203986 0.223974,0.0621651 0.447949,0.114436 0.671923,0.151815 0.223874,0.0397777 0.432857,0.0596665 0.626948,0.0596665l0.0423762 0 0 1.38352 -0.0273846 0c-0.233869,0 -0.475233,-0.00999439 -0.721595,-0.0348804 -0.24886,-0.024886 -0.497621,-0.0671623 -0.751478,-0.12443 -0.253758,-0.0571679 -0.492624,-0.139322 -0.721595,-0.241365 -0.228872,-0.101943 -0.425461,-0.226373 -0.589669,-0.370692l0.306028 -1.2541zm3.10536 -4.18525c0.32092,0.146818 0.646937,0.301131 0.982849,0.467838 0.335912,0.164208 0.639441,0.365795 0.910689,0.604661 0.273646,0.238866 0.497621,0.527504 0.671823,0.868413 0.174102,0.33831 0.261253,0.761373 0.261253,1.26649 0,0.350803 -0.0646637,0.691712 -0.19659,1.02263 -0.129427,0.328416 -0.316023,0.627048 -0.55239,0.895797 -0.238866,0.266251 -0.532501,0.492624 -0.883304,0.67682 -0.348405,0.186595 -0.74898,0.306028 -1.19433,0.365695l0 -1.40081c0.796153,-0.194091 1.19433,-0.724094 1.19433,-1.58751 0,-0.340909 -0.111937,-0.622051 -0.335912,-0.846025 -0.221476,-0.223974 -0.510114,-0.432957 -0.858418,-0.627048l0 -1.70694z"/>
    <path id="_38966279212345" class="fil0" d="M99.9095 37.926c0.532501,0.0273846 1.02013,0.156812 1.45808,0.385684 0.435456,0.228972 0.803749,0.530003 1.09978,0.903293 0.296134,0.375689 0.527504,0.808646 0.691712,1.30627 0.166706,0.495222 0.24886,1.02522 0.24886,1.58751 0,0.564883 -0.0845526,1.09239 -0.256256,1.58251 -0.169205,0.490225 -0.405572,0.918185 -0.706703,1.28398 -0.301031,0.363296 -0.669324,0.656831 -1.10728,0.880806 -0.437954,0.223974 -0.913188,0.3558 -1.4282,0.393179l0 -1.39842c0.485228,-0.10704 0.880806,-0.413068 1.18683,-0.918185 0.306128,-0.505117 0.460342,-1.11228 0.460342,-1.82388 0,-0.358299 -0.0372791,-0.696709 -0.109439,-1.01273 -0.0721595,-0.316023 -0.181698,-0.599664 -0.328516,-0.853421 -0.146818,-0.251359 -0.32092,-0.460342 -0.525005,-0.627048 -0.203986,-0.164208 -0.432957,-0.271248 -0.684216,-0.318521l0 -1.37103zm-4.06832 4.15537c0,-0.564783 0.0821539,-1.08979 0.246362,-1.57502 0.166706,-0.485228 0.403074,-0.910689 0.709102,-1.27648 0.306128,-0.363296 0.671823,-0.65933 1.09988,-0.880806 0.42796,-0.223974 0.898196,-0.360798 1.41331,-0.408071l0 1.35604c-0.485228,0.104541 -0.87341,0.413068 -1.16455,0.918185 -0.293635,0.505117 -0.437854,1.11228 -0.437854,1.82138 0,0.360798 0.0372791,0.699208 0.109439,1.02023 0.0721595,0.32092 0.176701,0.607059 0.313524,0.860917 0.134325,0.251259 0.30353,0.460342 0.502618,0.627048 0.199088,0.164208 0.425461,0.266251 0.67682,0.306028l0 1.39842c-0.532501,-0.037379 -1.01523,-0.171704 -1.44319,-0.400675 -0.42796,-0.226373 -0.791256,-0.527504 -1.09239,-0.895697 -0.301031,-0.368293 -0.532401,-0.80125 -0.691712,-1.29887 -0.161709,-0.495222 -0.241365,-1.02023 -0.241365,-1.57262z"/>
    <path id="_389662792123456" class="fil0" d="M107.446 43.6838c0,0.331014 0.0447749,0.589769 0.131826,0.781362 0.0871511,0.189094 0.209083,0.328416 0.363296,0.422963 0.156812,0.0920484 0.333413,0.151815 0.532501,0.181698 0.199088,0.0298832 0.415567,0.0422763 0.649436,0.0422763l0 1.07989c-0.126929,0.0198888 -0.258755,0.0348804 -0.393179,0.0447749 -0.10694,0.00749579 -0.233869,0.0149916 -0.380686,0.0198888 -0.144319,0.0049972 -0.291137,0.00749579 -0.435456,0.00749579 -0.146718,0 -0.293535,-0.0049972 -0.437854,-0.0148916 -0.146818,-0.00749579 -0.278744,-0.0223874 -0.393179,-0.0423762 -0.330914,-0.0671623 -0.589669,-0.21398 -0.773866,-0.437854 -0.184097,-0.223974 -0.325917,-0.472835 -0.422963,-0.751478 -0.0970456,-0.276245 -0.156812,-0.544894 -0.181698,-0.808646 -0.024886,-0.261253 -0.0372791,-0.465339 -0.0372791,-0.612157l0 -0.174202 0 -8.5595 1.7791 0 0 8.82075z"/>
    <path id="_3896627921234567" class="fil0" d="M112.709 42.4447c0,0.340909 0.0148916,0.65943 0.0447749,0.955464 0.0298832,0.296134 0.0920484,0.557387 0.189094,0.778863 0.0970456,0.223974 0.243863,0.405572 0.437954,0.539897 0.194091,0.136923 0.450347,0.204085 0.771367,0.204085 0.126929,0 0.306028,-0.0198888 0.539897,-0.0572679 0.233969,-0.0397777 0.457843,-0.101943 0.671923,-0.189094l0 1.0774c-0.253858,0.136923 -0.527604,0.256356 -0.823638,0.358299 -0.296134,0.102043 -0.592268,0.151815 -0.883304,0.151815 -0.233969,0 -0.442951,-0.0198888 -0.627048,-0.0646637 -0.184197,-0.0447749 -0.3558,-0.112037 -0.51761,-0.204085 -0.159211,-0.0920484 -0.313524,-0.19659 -0.457843,-0.313524 -0.146818,-0.116934 -0.293535,-0.24876 -0.437854,-0.393079 -0.166706,-0.166706 -0.296134,-0.358299 -0.393179,-0.577276 -0.0970456,-0.218977 -0.169205,-0.44545 -0.211481,-0.684316 -0.0447749,-0.238866 -0.0696609,-0.480231 -0.0746581,-0.721595 -0.0049972,-0.243863 -0.00749579,-0.482729 -0.00749579,-0.714099l0 -4.62311 1.7791 0 0 4.47629zm5.03128 -4.47629l0 8.22359 -1.59001 0 -0.189094 -0.846025 0 -7.37756 1.7791 0z"/>
    <path id="_38966279212345678" class="fil0" d="M122.565 43.6988c0,0.330914 0.0447749,0.587171 0.131926,0.773866 0.0870512,0.184097 0.211481,0.323419 0.370692,0.422963 0.161709,0.0970456 0.340909,0.156712 0.539997,0.181598 0.198988,0.024886 0.41047,0.0348804 0.634444,0.0348804l0 1.07989c-0.126929,0.0198888 -0.251259,0.0348804 -0.378188,0.0447749 -0.10704,0.00749579 -0.236367,0.0149916 -0.388182,0.0198888 -0.149316,0.0049972 -0.298632,0.00749579 -0.442852,0.00749579 -0.146818,0 -0.293635,-0.0049972 -0.44545,-0.0148916 -0.149316,-0.00749579 -0.278644,-0.0223874 -0.385684,-0.0423762 -0.330914,-0.0596665 -0.589669,-0.201487 -0.773866,-0.430458 -0.184097,-0.228872 -0.323419,-0.480231 -0.415467,-0.758874 -0.0920484,-0.276245 -0.149316,-0.544894 -0.174202,-0.808646 -0.024886,-0.261253 -0.037379,-0.465339 -0.037379,-0.612157l0 -4.43151 -1.0774 0 0 -1.19683 1.0774 0 0 -2.33149 1.76421 0 0 2.33149 1.31376 0 0 1.19683 -1.31376 0 0 4.53356z"/>
    <path id="_389662792123456789" class="fil0" d="M128.076 46.192l-1.7791 0 0 -8.22359 1.7791 0 0 8.22359zm0.159311 -10.8462c0,0.291137 -0.102043,0.535 -0.306128,0.736487 -0.203986,0.199088 -0.450347,0.298632 -0.743983,0.298632 -0.291137,0 -0.5349,-0.102043 -0.733988,-0.306028 -0.201587,-0.204085 -0.301131,-0.447949 -0.301131,-0.729091 0,-0.293635 0.102043,-0.539997 0.308627,-0.743983 0.203986,-0.204085 0.44535,-0.306028 0.726492,-0.306028 0.293635,0 0.539997,0.101943 0.743983,0.306028 0.204085,0.203986 0.306128,0.450347 0.306128,0.743983z"/>
    <path id="_38966279212345678910" class="fil0" d="M134.419 37.926c0.532501,0.0273846 1.02013,0.156812 1.45808,0.385684 0.435456,0.228972 0.803749,0.530003 1.09978,0.903293 0.296134,0.375689 0.527504,0.808646 0.691712,1.30627 0.166706,0.495222 0.24886,1.02522 0.24886,1.58751 0,0.564883 -0.0845526,1.09239 -0.256256,1.58251 -0.169205,0.490225 -0.405572,0.918185 -0.706703,1.28398 -0.301031,0.363296 -0.669324,0.656831 -1.10728,0.880806 -0.437954,0.223974 -0.913188,0.3558 -1.4282,0.393179l0 -1.39842c0.485228,-0.10704 0.880806,-0.413068 1.18683,-0.918185 0.306128,-0.505117 0.460342,-1.11228 0.460342,-1.82388 0,-0.358299 -0.0372791,-0.696709 -0.109439,-1.01273 -0.0721595,-0.316023 -0.181698,-0.599664 -0.328516,-0.853421 -0.146818,-0.251359 -0.32092,-0.460342 -0.525005,-0.627048 -0.203986,-0.164208 -0.432957,-0.271248 -0.684216,-0.318521l0 -1.37103zm-4.06832 4.15537c0,-0.564783 0.0821539,-1.08979 0.246362,-1.57502 0.166706,-0.485228 0.403074,-0.910689 0.709102,-1.27648 0.306128,-0.363296 0.671823,-0.65933 1.09988,-0.880806 0.42796,-0.223974 0.898196,-0.360798 1.41331,-0.408071l0 1.35604c-0.485228,0.104541 -0.87341,0.413068 -1.16455,0.918185 -0.293635,0.505117 -0.437854,1.11228 -0.437854,1.82138 0,0.360798 0.0372791,0.699208 0.109439,1.02023 0.0721595,0.32092 0.176701,0.607059 0.313524,0.860917 0.134325,0.251259 0.30353,0.460342 0.502618,0.627048 0.199088,0.164208 0.425461,0.266251 0.67682,0.306028l0 1.39842c-0.532501,-0.037379 -1.01523,-0.171704 -1.44319,-0.400675 -0.42796,-0.226373 -0.791256,-0.527504 -1.09239,-0.895697 -0.301031,-0.368293 -0.532401,-0.80125 -0.691712,-1.29887 -0.161709,-0.495222 -0.241365,-1.02023 -0.241365,-1.57262z"/>
    <path id="_3896627921234567891011" class="fil0" d="M141.782 37.9684l0.189094 0.831034 0 7.39255 -1.76411 0 0 -8.22359 1.57502 0zm4.54855 0.905692c0.164208,0.164208 0.293535,0.3558 0.385684,0.574778 0.0920484,0.218977 0.161709,0.447849 0.203986,0.684216 0.0447749,0.238866 0.0696609,0.480231 0.0796553,0.721595 0.00989445,0.243863 0.0148916,0.482729 0.0148916,0.716698l0 4.32947 0 0.291137 -1.7791 0 0 -4.47639c0,-0.330914 -0.012393,-0.646937 -0.0422763,-0.947968 -0.0298832,-0.301031 -0.0970456,-0.567282 -0.203986,-0.80125 -0.10704,-0.233869 -0.253858,-0.415467 -0.437954,-0.547393 -0.184197,-0.129327 -0.442951,-0.19659 -0.773866,-0.19659 -0.134325,0 -0.316023,0.0223874 -0.544894,0.0672623 -0.228972,0.0422763 -0.450447,0.111937 -0.664427,0.211481l0 -1.12467c0.263752,-0.134425 0.547493,-0.251359 0.853521,-0.348405 0.306028,-0.0970456 0.604661,-0.146818 0.895697,-0.146818 0.437954,0 0.806248,0.0896497 1.10978,0.271248 0.301131,0.1791 0.602162,0.418065 0.903293,0.721595z"/>
    <path id="_389662792123456789101112" class="fil0" d="M149.261 40.3173c0,-0.370792 0.0671623,-0.704205 0.203986,-1.00034 0.134425,-0.296034 0.326017,-0.547393 0.567282,-0.756376 0.243863,-0.208983 0.51761,-0.375689 0.823638,-0.497621 0.306028,-0.119433 0.62455,-0.19659 0.955464,-0.223974l0 1.45808c-0.251259,0.0472735 -0.450347,0.149316 -0.589669,0.306128 -0.14182,0.154213 -0.211481,0.373191 -0.211481,0.654333 0,0.233869 0.0746581,0.420564 0.226373,0.562384 0.149316,0.139322 0.340909,0.263752 0.574778,0.370692l0 1.56012c-0.164208,-0.0472735 -0.333413,-0.104441 -0.502618,-0.166706 -0.169205,-0.0646637 -0.33841,-0.134325 -0.502618,-0.211481 -0.515011,-0.273646 -0.900695,-0.559886 -1.15945,-0.860917 -0.258855,-0.301031 -0.385684,-0.699208 -0.385684,-1.19433zm4.86947 -0.612157c-0.263752,-0.136823 -0.542496,-0.238866 -0.83853,-0.306028 -0.296134,-0.0696609 -0.589769,-0.111937 -0.883404,-0.131826l0 -1.44319c0.437954,0.0198888 0.841028,0.0795554 1.21182,0.181598 0.368293,0.102043 0.729091,0.263752 1.0774,0.487726l-0.567282 1.21172zm-4.0982 4.65059c0.194091,0.134325 0.425561,0.261253 0.69431,0.378188 0.266151,0.116934 0.604561,0.174102 1.01263,0.174102l0.0721595 0 0 1.35614c-0.243763,0 -0.465239,-0.00749579 -0.669324,-0.0198888 -0.203986,-0.0149916 -0.405572,-0.0497721 -0.607059,-0.104541 -0.199088,-0.0522707 -0.400675,-0.126929 -0.604661,-0.223874 -0.204085,-0.0970456 -0.418065,-0.223974 -0.64204,-0.380786l0.743983 -1.17934zm2.37627 -2.93116c0.293635,0.0970456 0.589769,0.203986 0.8908,0.32092 0.301131,0.116934 0.574778,0.261253 0.823638,0.437954 0.246362,0.174202 0.450347,0.390681 0.612157,0.646937 0.159211,0.258755 0.241365,0.582273 0.241365,0.970456 0,0.378188 -0.0697609,0.709102 -0.204085,0.990244 -0.136823,0.283741 -0.318521,0.525005 -0.547393,0.729091 -0.228972,0.203986 -0.497621,0.365795 -0.808646,0.482729 -0.311125,0.116934 -0.647037,0.194091 -1.00783,0.233869l0 -1.38592c0.331014,-0.0597665 0.58727,-0.161709 0.76647,-0.313524 0.1791,-0.151815 0.268649,-0.353302 0.268649,-0.604661 0,-0.253758 -0.0994442,-0.450347 -0.298533,-0.592168 -0.199088,-0.139322 -0.442951,-0.263752 -0.736587,-0.370792l0 -1.54513z"/>
   </g>
   <g>
    <ellipse id="_204182784" class="fil1" cx="21.6579" cy="25.3514" rx="21.6579" ry="25.3513"/>
    <ellipse id="_204182376" class="fil2" cx="26.6038" cy="25.3514" rx="16.6791" ry="19.5234"/>
    <ellipse id="_204182832" class="fil3" cx="22.6337" cy="25.3514" rx="12.7807" ry="14.9603"/>
   </g>
  </g>
 </g>
</svg>
