<svg width="1040" height="1048" viewBox="0 0 1040 1048" fill="none" xmlns="http://www.w3.org/2000/svg">
<rect x="0.942" y="0.942" width="1038.12" height="1046.12" fill="black"/>
<path d="M112.978 531.536C112.978 517.745 114.605 505.581 117.859 495.044C121.268 484.352 125.917 475.365 131.805 468.082C137.848 460.644 144.899 454.988 152.956 451.115C161.169 447.086 170.079 444.761 179.686 444.142V467.385C174.417 468.004 169.459 469.632 164.81 472.266C160.162 474.9 156.133 478.774 152.724 483.887C149.315 489.001 146.603 495.509 144.589 503.411C142.574 511.314 141.49 520.689 141.335 531.536C141.49 542.537 142.574 551.99 144.589 559.892C146.603 567.64 149.315 574.148 152.724 579.416C156.288 584.685 160.394 588.714 165.043 591.503C169.691 594.137 174.572 595.687 179.686 596.151V619.162C170.234 618.542 161.401 616.296 153.189 612.422C144.976 608.393 137.848 602.737 131.805 595.454C125.917 588.016 121.268 578.952 117.859 568.26C114.605 557.568 112.978 545.327 112.978 531.536ZM188.983 444.142C198.435 444.606 207.19 446.853 215.248 450.882C223.46 454.911 230.511 460.644 236.399 468.082C242.442 475.365 247.168 484.352 250.577 495.044C253.986 505.581 255.691 517.745 255.691 531.536C255.691 545.327 253.986 557.568 250.577 568.26C247.168 578.952 242.442 588.016 236.399 595.454C230.511 602.737 223.538 608.393 215.48 612.422C207.423 616.296 198.59 618.542 188.983 619.162V596.151C194.251 595.532 199.21 593.905 203.859 591.27C208.507 588.481 212.536 584.53 215.945 579.416C219.354 574.148 222.066 567.64 224.08 559.892C226.095 551.99 227.179 542.537 227.334 531.536C227.179 520.534 226.095 511.159 224.08 503.411C222.066 495.509 219.277 489.001 215.713 483.887C212.304 478.619 208.275 474.668 203.626 472.033C198.978 469.244 194.097 467.617 188.983 467.152V444.142ZM321.469 578.022C321.469 583.29 322.166 587.474 323.561 590.573C324.955 593.517 326.892 595.764 329.371 597.314C331.851 598.708 334.64 599.638 337.739 600.103C340.993 600.568 344.479 600.8 348.198 600.8V618C346.184 618.31 344.092 618.542 341.923 618.697C340.218 618.852 338.204 618.93 335.879 618.93C333.555 619.085 331.231 619.162 328.907 619.162C326.582 619.162 324.258 619.085 321.934 618.93C319.609 618.775 317.517 618.542 315.658 618.232C310.39 617.148 306.283 614.823 303.339 611.259C300.395 607.696 298.148 603.744 296.599 599.406C295.049 594.912 294.042 590.573 293.577 586.389C293.267 582.206 293.112 578.952 293.112 576.627V573.838V437.401H321.469V578.022ZM438.846 485.747C447.214 486.522 454.729 488.768 461.392 492.487C468.21 496.206 474.021 501.01 478.825 506.898C483.628 512.786 487.27 519.527 489.749 527.119C492.383 534.712 493.7 542.615 493.7 550.827C493.7 554.546 493.468 558.265 493.003 561.984H413.279V541.53H466.971C466.971 537.501 466.273 533.628 464.879 529.909C463.639 526.19 461.702 522.781 459.068 519.682C456.589 516.428 453.645 513.716 450.236 511.547C446.827 509.377 443.03 508.06 438.846 507.595V485.747ZM437.917 596.151C439.621 596.151 441.713 595.997 444.192 595.687C446.827 595.222 449.538 594.524 452.327 593.595C455.272 592.51 458.138 591.193 460.927 589.643C463.872 588.094 466.428 586.234 468.598 584.065L478.825 599.638C473.711 605.991 467.745 610.795 460.927 614.049C454.109 617.303 445.432 618.93 434.895 618.93C426.373 618.93 418.392 617.225 410.955 613.816C403.517 610.252 397.164 605.449 391.895 599.406C386.627 593.362 382.443 586.312 379.344 578.254C376.245 570.197 374.695 561.519 374.695 552.222C374.695 543.39 376.09 535.022 378.879 527.119C381.823 519.217 385.775 512.321 390.733 506.433C395.692 500.39 401.425 495.509 407.933 491.79C414.596 488.071 421.724 485.979 429.317 485.514V507.828C423.583 508.912 418.857 511.237 415.138 514.801C411.42 518.365 408.475 522.471 406.306 527.119C404.292 531.613 402.82 536.262 401.89 541.065C401.115 545.869 400.728 549.975 400.728 553.384C400.728 559.427 401.425 565.083 402.82 570.352C404.369 575.465 406.693 579.959 409.793 583.833C412.892 587.552 416.688 590.573 421.182 592.897C425.83 595.067 431.409 596.151 437.917 596.151ZM682.202 486.909H712.65L675.694 618.93H639.434L625.489 564.773V486.909H635.716L657.796 596.151L682.202 486.909ZM580.862 596.151L605.267 486.909H615.959V557.8L599.224 618.93H562.732L529.03 486.909H559.246L580.862 596.151ZM777.034 618H748.677V486.909H777.034V618ZM779.59 445.071C779.59 449.72 777.963 453.671 774.709 456.925C771.455 460.024 767.504 461.574 762.855 461.574C758.207 461.574 754.255 459.947 751.001 456.693C747.902 453.439 746.353 449.565 746.353 445.071C746.353 440.423 747.98 436.471 751.234 433.217C754.488 429.963 758.362 428.336 762.855 428.336C767.504 428.336 771.455 429.963 774.709 433.217C777.963 436.471 779.59 440.423 779.59 445.071ZM841.649 486.909L844.671 500.157V618H816.547V486.909H841.649ZM914.168 501.32C916.802 503.954 918.817 507.053 920.211 510.617C921.761 514.026 922.845 517.667 923.465 521.541C924.24 525.26 924.705 529.056 924.86 532.93C925.015 536.804 925.092 540.6 925.092 544.319V613.351V618H896.736V546.644C896.736 541.375 896.503 536.339 896.038 531.536C895.573 526.732 894.489 522.471 892.784 518.752C891.08 515.033 888.756 512.166 885.811 510.152C882.867 507.983 878.761 506.898 873.493 506.898C871.323 506.898 868.379 507.285 864.66 508.06C861.096 508.68 857.61 509.765 854.201 511.314V493.417C858.385 491.248 862.878 489.388 867.682 487.839C872.64 486.289 877.444 485.514 882.092 485.514C889.065 485.514 894.954 486.986 899.757 489.93C904.561 492.72 909.364 496.516 914.168 501.32Z" fill="white"/>
<rect x="0.942" y="0.942" width="1038.12" height="1046.12" stroke="black" stroke-width="1.884"/>
</svg>
